<svg width="187" height="65" viewBox="0 0 187 65" fill="none" xmlns="http://www.w3.org/2000/svg">
<rect x="2.5" y="2.5" width="182" height="60" rx="30" fill="white"/>
<rect x="2.5" y="2.5" width="182" height="60" rx="30" stroke="#9D9D9D" stroke-width="5"/>
<path d="M76.6198 36.44V48H72.7398V36.44L61.8998 19.28H66.4198L74.6598 33.08L82.8998 19.28H87.4598L76.6198 36.44ZM99.2736 41.44H102.794C102.714 42.1867 102.407 43.04 101.874 44C101.554 44.6133 101.154 45.2 100.674 45.76C100.22 46.2933 99.6869 46.76 99.0736 47.16C98.4069 47.5867 97.6603 47.9333 96.8336 48.2C96.0336 48.4667 94.8869 48.6 93.3936 48.6C90.5136 48.6 88.2336 47.6267 86.5536 45.68C84.8736 43.7333 84.0336 41.2133 84.0336 38.12C84.0336 36.4667 84.2336 34.9467 84.6336 33.56C85.0336 32.1467 85.6469 30.9067 86.4736 29.84C87.3269 28.7733 88.3803 27.9467 89.6336 27.36C90.9136 26.7733 92.3936 26.48 94.0736 26.48C97.0336 26.48 99.2736 27.56 100.794 29.72C102.314 31.88 103.074 34.8667 103.074 38.68H87.7936C87.7936 40.8933 88.3003 42.6 89.3136 43.8C90.3536 44.9733 91.8736 45.56 93.8736 45.56C94.6736 45.56 95.3936 45.4267 96.0336 45.16C96.7003 44.8933 97.2869 44.5333 97.7936 44.08C98.7003 43.2267 99.1936 42.3467 99.2736 41.44ZM87.7936 35.88H99.4336C99.3803 35 99.2336 34.2 98.9936 33.48C98.7803 32.7333 98.4469 32.08 97.9936 31.52C97.5669 30.9333 96.9803 30.48 96.2336 30.16C95.5136 29.8133 94.6336 29.64 93.5936 29.64C92.8203 29.64 92.0736 29.8133 91.3536 30.16C90.6336 30.48 90.0069 30.9333 89.4736 31.52C88.9403 32.1067 88.5269 32.7867 88.2336 33.56C87.9403 34.3067 87.7936 35.08 87.7936 35.88ZM122.54 33.04H119.14C119.113 32.6133 119.047 32.2133 118.94 31.84C118.833 31.4667 118.607 31.1067 118.26 30.76C117.94 30.3867 117.433 30.0933 116.74 29.88C116.073 29.64 115.22 29.52 114.18 29.52C113.833 29.52 113.433 29.56 112.98 29.64C112.527 29.6933 112.073 29.8267 111.62 30.04C111.167 30.2533 110.78 30.56 110.46 30.96C110.167 31.36 110.02 31.8667 110.02 32.48C110.02 33.28 110.273 33.8533 110.78 34.2C111.313 34.5467 112.327 34.9067 113.82 35.28L117.34 36.16C119.5 36.6933 121.02 37.3867 121.9 38.24C122.78 39.0933 123.22 40.24 123.22 41.68C123.22 43.7867 122.447 45.4667 120.9 46.72C119.353 47.9733 117.367 48.6 114.94 48.6C112.993 48.6 111.407 48.36 110.18 47.88C108.98 47.4 108.073 46.7867 107.46 46.04C106.873 45.2667 106.473 44.4933 106.26 43.72C106.073 42.9467 105.967 42.1333 105.94 41.28H109.34C109.393 41.84 109.473 42.3467 109.58 42.8C109.713 43.2267 109.967 43.6667 110.34 44.12C110.74 44.5467 111.313 44.8933 112.06 45.16C112.807 45.4267 113.753 45.56 114.9 45.56C116.26 45.56 117.393 45.28 118.3 44.72C119.233 44.16 119.7 43.3333 119.7 42.24C119.7 41.44 119.393 40.84 118.78 40.44C118.193 40.04 117.113 39.64 115.54 39.24L111.46 38.24C109.913 37.8667 108.713 37.28 107.86 36.48C107.033 35.6533 106.62 34.5467 106.62 33.16C106.62 32.04 106.833 31.0667 107.26 30.24C107.687 29.3867 108.273 28.6667 109.02 28.08C110.46 27.0133 112.3 26.48 114.54 26.48C116.273 26.48 117.687 26.7467 118.78 27.28C119.873 27.8133 120.687 28.4533 121.22 29.2C121.753 29.9467 122.1 30.6667 122.26 31.36C122.447 32.0267 122.54 32.5867 122.54 33.04Z" fill="#4C4C4C"/>
</svg>
