<svg width="187" height="65" viewBox="0 0 187 65" fill="none" xmlns="http://www.w3.org/2000/svg">
<rect x="2.5" y="2.5" width="182" height="60" rx="30" fill="white"/>
<rect x="2.5" y="2.5" width="182" height="60" rx="30" stroke="#9D9D9D" stroke-width="5"/>
<path d="M89.5331 42.48V19.28H93.2931V48H88.9331L74.3331 24.8H74.2531V48H70.4931V19.28H75.0931L89.4531 42.48H89.5331ZM97.7203 37.52C97.7203 36.1333 97.9203 34.7867 98.3203 33.48C98.7203 32.1733 99.3203 30.9867 100.12 29.92C100.92 28.8533 101.934 28.0133 103.16 27.4C104.414 26.7867 105.84 26.48 107.44 26.48C109.04 26.48 110.454 26.7867 111.68 27.4C112.934 28.0133 113.96 28.8533 114.76 29.92C115.56 30.96 116.16 32.1467 116.56 33.48C116.96 34.7867 117.16 36.1333 117.16 37.52C117.16 38.9067 116.96 40.2533 116.56 41.56C116.16 42.8667 115.56 44.0533 114.76 45.12C113.96 46.1867 112.934 47.0267 111.68 47.64C110.454 48.2533 109.04 48.56 107.44 48.56C105.84 48.56 104.414 48.2533 103.16 47.64C101.934 47.0267 100.92 46.1867 100.12 45.12C99.3203 44.0533 98.7203 42.8667 98.3203 41.56C97.9203 40.2533 97.7203 38.9067 97.7203 37.52ZM101.36 37.52C101.36 38.32 101.454 39.1733 101.64 40.08C101.827 40.9867 102.134 41.8533 102.56 42.68C103.014 43.5067 103.64 44.1867 104.44 44.72C105.24 45.2533 106.24 45.52 107.44 45.52C108.64 45.52 109.64 45.2533 110.44 44.72C111.24 44.1867 111.867 43.5067 112.32 42.68C112.774 41.8533 113.08 40.9867 113.24 40.08C113.427 39.1733 113.52 38.32 113.52 37.52C113.52 36.72 113.427 35.8667 113.24 34.96C113.08 34.0533 112.774 33.1867 112.32 32.36C111.867 31.5333 111.24 30.8533 110.44 30.32C109.64 29.7867 108.64 29.52 107.44 29.52C106.24 29.52 105.24 29.7867 104.44 30.32C103.64 30.8533 103.014 31.5333 102.56 32.36C102.134 33.1867 101.827 34.0533 101.64 34.96C101.454 35.8667 101.36 36.72 101.36 37.52Z" fill="#4C4C4C"/>
</svg>
